<svg xmlns="http://www.w3.org/2000/svg" xmlns:xlink="http://www.w3.org/1999/xlink" preserveAspectRatio="xMidYMid" width="96" height="78" viewBox="0 0 96 78">
  <defs>
    <style>
      .cls-1 {
        fill: #ef5555;
        fill-rule: evenodd;
      }
    </style>
  </defs>
  <path d="M93.000,37.500 L73.500,37.500 L73.500,34.430 C73.500,33.642 74.142,33.000 74.931,33.000 L91.569,33.000 C92.358,33.000 93.000,33.642 93.000,34.430 L93.000,37.500 ZM93.000,67.500 L73.500,67.500 L73.500,40.500 L93.000,40.500 L93.000,67.500 ZM93.000,73.570 C93.000,74.358 92.358,75.000 91.569,75.000 L74.931,75.000 C74.142,75.000 73.500,74.358 73.500,73.570 L73.500,70.500 L93.000,70.500 L93.000,73.570 ZM70.500,34.430 L70.500,49.500 L3.000,49.500 L3.000,10.500 L85.500,10.500 L85.500,30.000 L74.931,30.000 C72.488,30.000 70.500,31.988 70.500,34.430 ZM70.500,60.000 L52.408,60.000 L36.426,60.000 L6.344,60.000 C4.625,60.000 3.000,58.202 3.000,56.301 L3.000,52.500 L70.500,52.500 L70.500,60.000 ZM35.085,75.000 L37.641,63.000 L51.193,63.000 L53.749,75.000 L35.085,75.000 ZM3.000,5.833 C3.000,3.886 4.734,3.000 6.344,3.000 L83.051,3.000 C84.191,3.000 85.500,3.322 85.500,5.833 L85.500,7.500 L3.000,7.500 L3.000,5.833 ZM91.569,30.000 L88.500,30.000 L88.500,5.833 C88.500,2.235 86.412,0.000 83.051,0.000 L6.344,0.000 C2.727,0.000 -0.000,2.508 -0.000,5.833 L-0.000,56.301 C-0.000,59.869 2.965,63.000 6.344,63.000 L34.573,63.000 L32.018,75.000 L28.500,75.000 C27.672,75.000 27.000,75.671 27.000,76.500 C27.000,77.329 27.672,78.000 28.500,78.000 L33.232,78.000 L55.602,78.000 C55.613,78.000 55.622,77.999 55.632,78.000 L60.000,78.000 C60.828,78.000 61.500,77.329 61.500,76.500 C61.500,75.671 60.828,75.000 60.000,75.000 L56.817,75.000 L54.261,63.000 L70.500,63.000 L70.500,73.570 C70.500,76.012 72.488,78.000 74.931,78.000 L91.569,78.000 C94.012,78.000 96.000,76.012 96.000,73.570 L96.000,34.430 C96.000,31.988 94.012,30.000 91.569,30.000 Z" class="cls-1"/>
</svg>
