<svg xmlns="http://www.w3.org/2000/svg" xmlns:xlink="http://www.w3.org/1999/xlink" preserveAspectRatio="xMidYMid" width="96" height="96" viewBox="0 0 96 96">
  <defs>
    <style>
      .cls-1 {
        fill: #ef5555;
        fill-rule: evenodd;
      }
    </style>
  </defs>
  <path d="M95.982,94.590 C95.976,94.690 95.949,94.785 95.923,94.883 C95.896,94.980 95.874,95.073 95.830,95.161 C95.816,95.190 95.817,95.222 95.800,95.250 C95.765,95.311 95.709,95.348 95.667,95.403 C95.609,95.478 95.554,95.550 95.484,95.612 C95.402,95.685 95.314,95.738 95.220,95.790 C95.147,95.831 95.078,95.871 94.999,95.899 C94.893,95.937 94.786,95.952 94.675,95.965 C94.615,95.972 94.562,96.000 94.500,96.000 C94.470,96.000 94.445,95.985 94.416,95.983 C94.327,95.977 94.244,95.953 94.157,95.931 C94.038,95.902 93.924,95.871 93.817,95.815 C93.802,95.807 93.785,95.808 93.769,95.799 L73.427,82.738 L48.731,95.799 C48.715,95.808 48.699,95.811 48.683,95.815 C48.576,95.871 48.462,95.902 48.343,95.931 C48.315,95.938 48.290,95.953 48.261,95.959 C48.232,95.964 48.203,95.962 48.175,95.965 C48.115,95.972 48.062,96.000 48.000,96.000 C47.938,96.000 47.885,95.972 47.825,95.965 C47.797,95.962 47.768,95.964 47.740,95.959 C47.710,95.953 47.685,95.938 47.657,95.931 C47.538,95.902 47.424,95.871 47.317,95.815 C47.301,95.811 47.285,95.808 47.269,95.799 L22.573,82.737 L2.231,95.799 C2.215,95.808 2.198,95.807 2.183,95.815 C2.076,95.871 1.962,95.902 1.843,95.931 C1.756,95.953 1.673,95.977 1.584,95.983 C1.555,95.985 1.530,96.000 1.500,96.000 C1.438,96.000 1.385,95.972 1.325,95.965 C1.214,95.952 1.107,95.937 1.001,95.899 C0.922,95.871 0.853,95.831 0.780,95.790 C0.686,95.738 0.598,95.685 0.516,95.612 C0.446,95.550 0.391,95.478 0.333,95.403 C0.291,95.348 0.235,95.311 0.200,95.250 C0.183,95.222 0.184,95.190 0.170,95.161 C0.126,95.073 0.104,94.980 0.077,94.883 C0.051,94.785 0.024,94.690 0.018,94.590 C0.016,94.558 0.000,94.532 0.000,94.500 L0.000,15.000 C0.000,14.935 0.029,14.880 0.037,14.817 C0.050,14.713 0.064,14.614 0.098,14.515 C0.128,14.427 0.171,14.349 0.217,14.269 C0.266,14.181 0.317,14.098 0.384,14.021 C0.446,13.950 0.517,13.895 0.591,13.837 C0.645,13.794 0.682,13.737 0.744,13.701 L21.565,0.332 C21.600,0.304 21.638,0.286 21.674,0.262 L21.769,0.201 C21.785,0.192 21.801,0.188 21.818,0.184 C21.924,0.129 22.037,0.099 22.156,0.070 C22.184,0.062 22.210,0.047 22.239,0.041 C22.269,0.036 22.298,0.038 22.327,0.035 C22.386,0.028 22.439,0.000 22.500,0.000 C22.561,0.000 22.614,0.028 22.673,0.035 C22.702,0.038 22.731,0.036 22.761,0.041 C22.790,0.047 22.816,0.062 22.844,0.070 C22.963,0.099 23.076,0.129 23.182,0.184 C23.199,0.188 23.215,0.192 23.231,0.201 L48.000,13.301 L72.769,0.201 C72.785,0.192 72.801,0.188 72.818,0.184 C72.924,0.129 73.037,0.099 73.156,0.070 C73.184,0.062 73.210,0.047 73.239,0.041 C73.269,0.036 73.298,0.038 73.327,0.035 C73.386,0.028 73.439,0.000 73.500,0.000 C73.561,0.000 73.614,0.028 73.673,0.035 C73.702,0.038 73.731,0.036 73.761,0.041 C73.790,0.047 73.816,0.062 73.844,0.070 C73.963,0.099 74.076,0.129 74.182,0.184 C74.199,0.188 74.215,0.192 74.231,0.201 L74.326,0.262 C74.362,0.286 74.400,0.304 74.435,0.332 L95.256,13.701 C95.318,13.737 95.355,13.794 95.409,13.837 C95.483,13.895 95.554,13.950 95.616,14.021 C95.683,14.098 95.734,14.181 95.783,14.269 C95.829,14.349 95.871,14.427 95.902,14.515 C95.936,14.614 95.950,14.713 95.963,14.817 C95.971,14.880 96.000,14.935 96.000,15.000 L96.000,94.500 C96.000,94.532 95.984,94.558 95.982,94.590 ZM21.000,4.248 L3.000,15.805 L3.000,91.752 L21.000,80.195 L21.000,4.248 ZM24.000,3.992 L24.000,80.108 L46.500,92.008 L46.500,48.704 L44.648,50.556 C44.039,51.165 43.053,51.165 42.444,50.556 C41.835,49.947 41.835,48.960 42.444,48.352 L46.500,44.296 L46.500,15.892 L24.000,3.992 ZM72.000,3.992 L49.500,15.892 L49.500,44.982 C49.502,45.026 49.502,45.067 49.500,45.110 L49.500,92.008 L72.000,80.108 L72.000,3.992 ZM93.000,41.957 C92.588,41.968 92.174,41.825 91.859,41.511 L87.464,37.115 C86.857,36.508 86.857,35.524 87.464,34.917 C88.071,34.310 89.055,34.310 89.662,34.917 L93.000,38.255 L93.000,15.805 L75.000,4.248 L75.000,80.195 L93.000,91.752 L93.000,41.957 ZM80.687,25.943 L85.083,30.338 C85.690,30.945 85.690,31.929 85.083,32.536 C84.476,33.143 83.492,33.143 82.885,32.536 L78.490,28.140 C77.883,27.534 77.883,26.549 78.490,25.943 C79.096,25.336 80.080,25.336 80.687,25.943 ZM57.352,34.944 C57.961,34.335 58.947,34.335 59.556,34.944 C60.165,35.553 60.165,36.539 59.556,37.148 L55.148,41.556 C54.539,42.165 53.553,42.165 52.944,41.556 C52.335,40.947 52.335,39.961 52.944,39.352 L57.352,34.944 ZM66.352,25.944 C66.961,25.336 67.947,25.336 68.556,25.944 C69.165,26.553 69.165,27.539 68.556,28.148 L64.148,32.556 C63.539,33.165 62.553,33.165 61.944,32.556 C61.335,31.947 61.335,30.961 61.944,30.352 L66.352,25.944 ZM40.066,64.017 C39.454,64.629 38.461,64.629 37.849,64.017 L34.523,60.691 L31.198,64.017 C30.585,64.629 29.593,64.629 28.981,64.017 C28.369,63.405 28.369,62.413 28.981,61.800 L32.307,58.474 L28.983,55.151 C28.371,54.539 28.371,53.546 28.983,52.934 C29.595,52.322 30.588,52.322 31.200,52.934 L34.523,56.258 L37.847,52.934 C38.459,52.322 39.452,52.322 40.064,52.934 C40.676,53.546 40.676,54.539 40.064,55.151 L36.740,58.474 L40.066,61.800 C40.678,62.413 40.678,63.405 40.066,64.017 Z" class="cls-1"/>
</svg>
