<svg xmlns="http://www.w3.org/2000/svg" xmlns:xlink="http://www.w3.org/1999/xlink" preserveAspectRatio="xMidYMid" width="96" height="96" viewBox="0 0 96 96">
  <defs>
    <style>
      .cls-1 {
        fill: #ef5555;
        fill-rule: evenodd;
      }
    </style>
  </defs>
  <path d="M93.000,96.000 L3.000,96.000 C1.343,96.000 -0.000,94.657 -0.000,93.000 L-0.000,3.000 C-0.000,1.343 1.343,0.000 3.000,0.000 L93.000,0.000 C94.657,0.000 96.000,1.343 96.000,3.000 L96.000,93.000 C96.000,94.657 94.657,96.000 93.000,96.000 ZM93.000,3.000 L3.000,3.000 L3.000,27.000 L93.000,27.000 L93.000,3.000 ZM93.000,30.000 L3.000,30.000 L3.000,93.000 L93.000,93.000 L93.000,30.000 ZM11.258,55.671 C11.973,55.266 12.888,55.506 13.301,56.208 L16.500,61.637 L19.698,56.208 C19.721,56.169 19.759,56.148 19.784,56.112 C19.822,56.059 19.869,56.017 19.913,55.969 C20.004,55.872 20.095,55.784 20.205,55.717 C20.225,55.704 20.237,55.683 20.258,55.671 C20.301,55.646 20.350,55.646 20.395,55.626 C20.504,55.578 20.610,55.537 20.727,55.516 C20.819,55.499 20.908,55.498 21.000,55.498 C21.092,55.498 21.181,55.499 21.273,55.516 C21.390,55.537 21.496,55.578 21.605,55.626 C21.650,55.646 21.699,55.646 21.742,55.671 C21.763,55.683 21.775,55.704 21.795,55.717 C21.905,55.784 21.996,55.872 22.086,55.968 C22.131,56.017 22.178,56.059 22.216,56.112 C22.241,56.148 22.279,56.169 22.301,56.208 L25.500,61.637 L28.698,56.208 C29.112,55.506 30.027,55.266 30.742,55.671 C31.458,56.076 31.703,56.972 31.290,57.674 L26.802,65.292 C26.779,65.330 26.741,65.352 26.716,65.387 C26.678,65.441 26.630,65.484 26.585,65.533 C26.495,65.628 26.405,65.716 26.296,65.783 C26.275,65.796 26.264,65.817 26.242,65.829 C26.198,65.854 26.149,65.855 26.104,65.875 C25.995,65.922 25.890,65.963 25.773,65.984 C25.681,66.001 25.592,66.002 25.500,66.002 C25.408,66.002 25.319,66.001 25.227,65.984 C25.111,65.963 25.005,65.922 24.896,65.875 C24.851,65.855 24.802,65.854 24.758,65.829 C24.736,65.817 24.725,65.796 24.704,65.783 C24.595,65.716 24.505,65.628 24.415,65.533 C24.370,65.484 24.322,65.441 24.284,65.387 C24.259,65.352 24.221,65.330 24.198,65.292 L21.000,59.863 L17.802,65.292 C17.779,65.330 17.741,65.352 17.716,65.387 C17.678,65.441 17.630,65.484 17.585,65.533 C17.495,65.628 17.405,65.716 17.296,65.783 C17.275,65.796 17.264,65.817 17.242,65.829 C17.198,65.854 17.149,65.855 17.104,65.875 C16.995,65.922 16.890,65.963 16.773,65.984 C16.681,66.001 16.592,66.002 16.500,66.002 C16.408,66.002 16.319,66.001 16.227,65.984 C16.111,65.963 16.005,65.922 15.896,65.875 C15.851,65.855 15.802,65.854 15.758,65.829 C15.736,65.817 15.725,65.796 15.704,65.783 C15.595,65.716 15.505,65.628 15.415,65.533 C15.370,65.484 15.322,65.441 15.284,65.387 C15.259,65.352 15.221,65.330 15.198,65.292 L10.710,57.674 C10.297,56.972 10.542,56.076 11.258,55.671 ZM38.258,55.671 C38.973,55.266 39.888,55.506 40.301,56.208 L43.500,61.637 L46.699,56.208 C46.721,56.169 46.759,56.148 46.784,56.112 C46.822,56.059 46.869,56.017 46.914,55.968 C47.004,55.872 47.095,55.784 47.205,55.717 C47.225,55.704 47.237,55.683 47.258,55.671 C47.301,55.646 47.350,55.646 47.395,55.626 C47.504,55.578 47.610,55.537 47.727,55.516 C47.819,55.499 47.908,55.498 48.000,55.498 C48.092,55.498 48.181,55.499 48.273,55.516 C48.390,55.537 48.496,55.578 48.605,55.626 C48.650,55.646 48.699,55.646 48.742,55.671 C48.763,55.683 48.775,55.704 48.795,55.717 C48.905,55.784 48.996,55.872 49.087,55.969 C49.131,56.017 49.178,56.059 49.216,56.112 C49.241,56.148 49.279,56.169 49.302,56.208 L52.500,61.637 L55.699,56.208 C56.112,55.506 57.027,55.266 57.742,55.671 C58.458,56.076 58.703,56.972 58.290,57.674 L53.802,65.292 C53.779,65.330 53.741,65.352 53.716,65.387 C53.678,65.441 53.630,65.484 53.585,65.533 C53.495,65.628 53.405,65.716 53.296,65.783 C53.275,65.796 53.264,65.817 53.242,65.829 C53.198,65.854 53.149,65.855 53.104,65.875 C52.995,65.922 52.889,65.963 52.773,65.984 C52.681,66.001 52.592,66.002 52.500,66.002 C52.408,66.002 52.319,66.001 52.227,65.984 C52.110,65.963 52.005,65.922 51.896,65.875 C51.851,65.855 51.802,65.854 51.758,65.829 C51.736,65.817 51.725,65.796 51.704,65.783 C51.595,65.716 51.505,65.628 51.415,65.533 C51.370,65.484 51.322,65.441 51.284,65.387 C51.259,65.352 51.221,65.330 51.198,65.292 L48.000,59.863 L44.802,65.292 C44.779,65.330 44.741,65.352 44.716,65.387 C44.678,65.441 44.630,65.484 44.585,65.533 C44.495,65.628 44.405,65.716 44.296,65.783 C44.275,65.796 44.264,65.817 44.242,65.829 C44.198,65.854 44.149,65.855 44.104,65.875 C43.995,65.922 43.889,65.963 43.773,65.984 C43.681,66.001 43.592,66.002 43.500,66.002 C43.408,66.002 43.319,66.001 43.227,65.984 C43.111,65.963 43.005,65.922 42.896,65.875 C42.851,65.855 42.802,65.854 42.758,65.829 C42.736,65.817 42.725,65.796 42.704,65.783 C42.595,65.716 42.505,65.628 42.415,65.533 C42.370,65.484 42.322,65.441 42.284,65.387 C42.259,65.352 42.221,65.330 42.198,65.292 L37.710,57.674 C37.297,56.972 37.542,56.076 38.258,55.671 ZM65.258,55.671 C65.973,55.266 66.888,55.506 67.302,56.208 L70.500,61.637 L73.699,56.208 C73.721,56.169 73.759,56.148 73.784,56.112 C73.822,56.059 73.869,56.017 73.914,55.969 C74.004,55.872 74.095,55.784 74.205,55.717 C74.225,55.704 74.237,55.683 74.258,55.671 C74.301,55.646 74.350,55.646 74.395,55.626 C74.504,55.578 74.610,55.537 74.727,55.516 C74.819,55.499 74.908,55.498 75.000,55.498 C75.092,55.498 75.181,55.499 75.273,55.516 C75.390,55.537 75.496,55.578 75.605,55.626 C75.650,55.646 75.699,55.646 75.742,55.671 C75.763,55.683 75.775,55.704 75.795,55.717 C75.905,55.784 75.996,55.872 76.087,55.969 C76.131,56.017 76.178,56.059 76.216,56.112 C76.241,56.148 76.279,56.169 76.302,56.208 L79.500,61.637 L82.698,56.208 C83.112,55.506 84.027,55.266 84.742,55.671 C85.458,56.076 85.703,56.972 85.290,57.674 L80.802,65.292 C80.779,65.330 80.741,65.352 80.716,65.387 C80.678,65.441 80.630,65.484 80.585,65.533 C80.495,65.628 80.405,65.716 80.295,65.783 C80.275,65.796 80.264,65.817 80.242,65.829 C80.198,65.854 80.149,65.855 80.104,65.875 C79.995,65.922 79.889,65.963 79.773,65.984 C79.681,66.001 79.592,66.002 79.500,66.002 C79.408,66.002 79.319,66.001 79.227,65.984 C79.111,65.963 79.005,65.922 78.896,65.875 C78.851,65.855 78.802,65.854 78.758,65.829 C78.736,65.817 78.725,65.796 78.704,65.783 C78.595,65.716 78.505,65.628 78.415,65.533 C78.370,65.484 78.322,65.441 78.284,65.387 C78.259,65.352 78.221,65.330 78.199,65.292 L75.000,59.863 L71.802,65.292 C71.779,65.330 71.741,65.352 71.716,65.387 C71.678,65.441 71.630,65.484 71.585,65.533 C71.495,65.628 71.405,65.716 71.295,65.783 C71.275,65.796 71.264,65.817 71.242,65.829 C71.198,65.854 71.149,65.855 71.104,65.875 C70.995,65.922 70.889,65.963 70.773,65.984 C70.681,66.001 70.592,66.002 70.500,66.002 C70.408,66.002 70.319,66.001 70.227,65.984 C70.111,65.963 70.005,65.922 69.896,65.875 C69.851,65.855 69.802,65.854 69.758,65.829 C69.736,65.817 69.725,65.796 69.704,65.783 C69.595,65.716 69.505,65.628 69.415,65.533 C69.370,65.484 69.322,65.441 69.284,65.387 C69.259,65.352 69.221,65.330 69.199,65.292 L64.710,57.674 C64.297,56.972 64.542,56.076 65.258,55.671 ZM13.500,10.500 C15.985,10.500 18.000,12.515 18.000,15.000 C18.000,17.485 15.985,19.500 13.500,19.500 C11.015,19.500 9.000,17.485 9.000,15.000 C9.000,12.515 11.015,10.500 13.500,10.500 ZM13.500,16.500 C14.328,16.500 15.000,15.828 15.000,15.000 C15.000,14.171 14.328,13.500 13.500,13.500 C12.672,13.500 12.000,14.171 12.000,15.000 C12.000,15.828 12.672,16.500 13.500,16.500 ZM25.500,10.500 C27.985,10.500 30.000,12.515 30.000,15.000 C30.000,17.485 27.985,19.500 25.500,19.500 C23.015,19.500 21.000,17.485 21.000,15.000 C21.000,12.515 23.015,10.500 25.500,10.500 ZM25.500,16.500 C26.328,16.500 27.000,15.828 27.000,15.000 C27.000,14.171 26.328,13.500 25.500,13.500 C24.672,13.500 24.000,14.171 24.000,15.000 C24.000,15.828 24.672,16.500 25.500,16.500 ZM37.500,10.500 C39.985,10.500 42.000,12.515 42.000,15.000 C42.000,17.485 39.985,19.500 37.500,19.500 C35.015,19.500 33.000,17.485 33.000,15.000 C33.000,12.515 35.015,10.500 37.500,10.500 ZM37.500,16.500 C38.328,16.500 39.000,15.828 39.000,15.000 C39.000,14.171 38.328,13.500 37.500,13.500 C36.672,13.500 36.000,14.171 36.000,15.000 C36.000,15.828 36.672,16.500 37.500,16.500 Z" class="cls-1"/>
</svg>
