<svg xmlns="http://www.w3.org/2000/svg" xmlns:xlink="http://www.w3.org/1999/xlink" preserveAspectRatio="xMidYMid" width="90" height="90" viewBox="0 0 90 90">
  <defs>
    <style>
      .cls-1 {
        fill: #ef5555;
        fill-rule: evenodd;
      }
    </style>
  </defs>
  <path d="M77.998,7.500 C76.340,7.500 75.000,8.841 75.000,10.500 C75.000,12.155 76.340,13.500 77.998,13.500 C79.658,13.500 81.000,12.155 81.000,10.500 C81.000,8.841 79.658,7.500 77.998,7.500 ZM70.498,7.500 C68.840,7.500 67.500,8.841 67.500,10.500 C67.500,12.155 68.840,13.500 70.498,13.500 C72.158,13.500 73.500,12.155 73.500,10.500 C73.500,8.841 72.158,7.500 70.498,7.500 ZM62.999,7.500 C61.340,7.500 60.000,8.841 60.000,10.500 C60.000,12.155 61.340,13.500 62.999,13.500 C64.658,13.500 66.000,12.155 66.000,10.500 C66.000,8.841 64.658,7.500 62.999,7.500 ZM77.998,34.500 C76.340,34.500 75.000,35.841 75.000,37.500 C75.000,39.155 76.340,40.500 77.998,40.500 C79.658,40.500 81.000,39.155 81.000,37.500 C81.000,35.841 79.658,34.500 77.998,34.500 ZM70.498,34.500 C68.840,34.500 67.500,35.841 67.500,37.500 C67.500,39.155 68.840,40.500 70.498,40.500 C72.158,40.500 73.500,39.155 73.500,37.500 C73.500,35.841 72.158,34.500 70.498,34.500 ZM62.999,34.500 C61.340,34.500 60.000,35.841 60.000,37.500 C60.000,39.155 61.340,40.500 62.999,40.500 C64.658,40.500 66.000,39.155 66.000,37.500 C66.000,35.841 64.658,34.500 62.999,34.500 ZM77.998,66.000 C79.658,66.000 81.000,64.655 81.000,63.000 C81.000,61.341 79.658,60.000 77.998,60.000 C76.340,60.000 75.000,61.341 75.000,63.000 C75.000,64.655 76.340,66.000 77.998,66.000 ZM70.498,66.000 C72.158,66.000 73.500,64.655 73.500,63.000 C73.500,61.341 72.158,60.000 70.498,60.000 C68.840,60.000 67.500,61.341 67.500,63.000 C67.500,64.655 68.840,66.000 70.498,66.000 ZM62.999,66.000 C64.658,66.000 66.000,64.655 66.000,63.000 C66.000,61.341 64.658,60.000 62.999,60.000 C61.340,60.000 60.000,61.341 60.000,63.000 C60.000,64.655 61.340,66.000 62.999,66.000 ZM19.501,64.502 C21.155,64.502 22.500,65.847 22.500,67.500 C22.500,69.155 21.155,70.501 19.501,70.501 C17.846,70.501 16.500,69.155 16.500,67.500 C16.500,65.847 17.846,64.502 19.501,64.502 ZM19.501,73.501 C22.809,73.501 25.500,70.809 25.500,67.500 C25.500,64.192 22.809,61.501 19.501,61.501 C16.192,61.501 13.500,64.192 13.500,67.500 C13.500,70.809 16.192,73.501 19.501,73.501 ZM87.000,69.737 C87.000,75.120 82.624,79.500 77.246,79.500 L76.500,79.500 L61.500,79.500 L28.500,79.500 L13.500,79.500 L12.754,79.500 C7.375,79.500 3.000,75.120 3.000,69.737 L3.000,55.500 L87.000,55.500 L87.000,69.737 ZM75.000,87.000 L63.000,87.000 L63.000,82.500 L75.000,82.500 L75.000,87.000 ZM27.000,87.000 L15.000,87.000 L15.000,82.500 L27.000,82.500 L27.000,87.000 ZM3.000,12.763 C3.000,7.380 7.375,3.000 12.754,3.000 L77.246,3.000 C82.624,3.000 87.000,7.380 87.000,12.763 L87.000,27.000 L3.000,27.000 L3.000,12.763 ZM3.000,30.000 L87.000,30.000 L87.000,52.500 L3.000,52.500 L3.000,30.000 ZM77.246,0.000 L12.754,0.000 C5.722,0.000 -0.000,5.725 -0.000,12.763 L-0.000,69.737 C-0.000,76.520 5.319,82.068 12.000,82.462 L12.000,88.500 C12.000,89.328 12.671,90.000 13.500,90.000 L28.500,90.000 C29.329,90.000 30.000,89.328 30.000,88.500 L30.000,82.500 L60.000,82.500 L60.000,88.500 C60.000,89.328 60.671,90.000 61.500,90.000 L76.500,90.000 C77.329,90.000 78.000,89.328 78.000,88.500 L78.000,82.462 C84.681,82.068 90.000,76.520 90.000,69.737 L90.000,12.763 C90.000,5.725 84.278,0.000 77.246,0.000 ZM21.001,43.500 C19.346,43.500 18.000,42.154 18.000,40.500 C18.000,38.845 19.346,37.500 21.001,37.500 C22.655,37.500 24.000,38.845 24.000,40.500 C24.000,42.154 22.655,43.500 21.001,43.500 ZM21.001,34.500 C17.692,34.500 15.000,37.192 15.000,40.500 C15.000,43.808 17.692,46.500 21.001,46.500 C24.309,46.500 27.000,43.808 27.000,40.500 C27.000,37.192 24.309,34.500 21.001,34.500 ZM21.001,19.500 C19.346,19.500 18.000,18.155 18.000,16.500 C18.000,14.845 19.346,13.500 21.001,13.500 C22.655,13.500 24.000,14.845 24.000,16.500 C24.000,18.155 22.655,19.500 21.001,19.500 ZM21.001,10.500 C17.692,10.500 15.000,13.192 15.000,16.500 C15.000,19.808 17.692,22.500 21.001,22.500 C24.309,22.500 27.000,19.808 27.000,16.500 C27.000,13.192 24.309,10.500 21.001,10.500 Z" class="cls-1"/>
</svg>
